<svg width="31" height="31" viewBox="0 0 31 31" fill="none" xmlns="http://www.w3.org/2000/svg">
<path fill-rule="evenodd" clip-rule="evenodd" d="M0 15.5C0 6.93954 6.93954 0 15.5 0C24.0605 0 31 6.93954 31 15.5C31 24.0605 24.0605 31 15.5 31C6.93954 31 0 24.0605 0 15.5ZM11.3228 5.16676H19.6761C23.0709 5.16676 25.8328 7.92865 25.8328 11.3235V19.6767C25.8328 23.0715 23.0709 25.8334 19.6761 25.8334H11.3228C7.92801 25.8334 5.16612 23.0715 5.16612 19.6767V11.3235C5.16612 7.92865 7.92801 5.16676 11.3228 5.16676ZM19.6761 23.7544C21.9281 23.7544 23.7537 21.9287 23.7537 19.6767V11.3235C23.7537 9.07143 21.9281 7.24583 19.6761 7.24583H11.3228C9.07083 7.24583 7.24519 9.07143 7.24519 11.3235V19.6767C7.24519 21.9287 9.07083 23.7544 11.3228 23.7544H19.6761ZM10.1539 15.4999C10.1539 12.5526 12.5517 10.1548 15.499 10.1548C18.4463 10.1548 20.8441 12.5526 20.8441 15.4999C20.8441 18.4472 18.4463 20.845 15.499 20.845C12.5517 20.845 10.1539 18.4472 10.1539 15.4999ZM12.2329 15.4999C12.2329 17.3037 13.6952 18.766 15.499 18.766C17.3028 18.766 18.7651 17.3037 18.7651 15.4999C18.7651 13.6961 17.3028 12.2339 15.499 12.2339C13.6952 12.2339 12.2329 13.6961 12.2329 15.4999ZM20.854 11.4759C21.5614 11.4759 22.1349 10.9024 22.1349 10.1951C22.1349 9.4877 21.5614 8.91427 20.854 8.91427C20.1467 8.91427 19.5732 9.4877 19.5732 10.1951C19.5732 10.9024 20.1467 11.4759 20.854 11.4759Z" fill="url(#paint0_linear_223_65)"/>
<defs>
<linearGradient id="paint0_linear_223_65" x1="23.5336" y1="30.9096" x2="23.5336" y2="0.240658" gradientUnits="userSpaceOnUse">
<stop stop-color="#E09B3D"/>
<stop offset="0.3" stop-color="#C74C4D"/>
<stop offset="0.6" stop-color="#C21975"/>
<stop offset="1" stop-color="#7024C4"/>
</linearGradient>
</defs>
</svg>
