<svg width="20" height="14" viewBox="0 0 20 14" fill="none" xmlns="http://www.w3.org/2000/svg">
<path d="M17.4724 0H2.52761C1.13391 0 0 1.08361 0 2.41548V11.5845C0 12.9164 1.13391 14 2.52761 14H17.4724C18.8661 14 20 12.9164 20 11.5845V2.41548C20 1.08361 18.8661 0 17.4724 0ZM17.0775 1.55811L10 6.78285L2.9225 1.55811H17.0775ZM17.4724 12.442H2.52761C2.03293 12.442 1.63043 12.0574 1.63043 11.5846V2.57316L9.50163 8.38386C9.64837 8.4922 9.82424 8.54632 10 8.54632C10.1758 8.54632 10.3516 8.4922 10.4984 8.38386L18.3696 2.57316V11.5845C18.3696 12.0574 17.9671 12.442 17.4724 12.442Z" fill="#FFED00"/>
</svg>
