<svg width="18" height="18" viewBox="0 0 18 18" fill="none" xmlns="http://www.w3.org/2000/svg">
<path fill-rule="evenodd" clip-rule="evenodd" d="M3.09218 1.51345C3.09953 1.51017 3.112 1.50518 3.12858 1.50011C3.16569 1.48874 3.20572 1.48226 3.24103 1.48272C3.27412 1.48316 3.29498 1.48938 3.30912 1.49636C3.32017 1.50182 3.3502 1.51857 3.39063 1.57674C3.63787 1.93239 4.00253 2.48198 4.37784 3.04763C4.66127 3.47479 4.95077 3.91111 5.20036 4.27997L5.21041 4.29483L5.22117 4.30918C5.56346 4.76579 5.5065 4.95157 5.49742 4.98118C5.49723 4.98179 5.49706 4.98233 5.49692 4.98281C5.48512 5.02243 5.45979 5.072 5.40458 5.14451C5.37634 5.18159 5.34601 5.21755 5.30582 5.26474C5.30349 5.26748 5.30105 5.27034 5.29851 5.27332C5.26459 5.3131 5.21323 5.37334 5.16872 5.43405C5.09692 5.53198 5.03385 5.61213 4.96893 5.69464C4.94705 5.72244 4.92497 5.75051 4.90226 5.77962C4.81855 5.88695 4.72195 6.01408 4.63826 6.15844C4.44753 6.48745 4.36539 6.83219 4.36539 7.28572C4.36539 7.52638 4.4439 7.74632 4.5145 7.90505C4.59071 8.07641 4.69158 8.24984 4.79928 8.41503C5.015 8.74593 5.29736 9.10315 5.5798 9.43634C6.0756 10.0212 6.61734 10.5849 6.89668 10.8755C6.93645 10.9169 6.9709 10.9527 6.99914 10.9823C7.26256 11.2583 7.89433 11.8307 8.52978 12.3418C8.84994 12.5994 9.1859 12.8534 9.4892 13.0527C9.64054 13.1521 9.79407 13.2448 9.9405 13.3185C10.0745 13.3861 10.2549 13.465 10.4477 13.4942C11.0136 13.5798 11.5593 13.3285 11.8856 13.1445C12.2149 12.9588 12.4912 12.7417 12.6324 12.6148C12.7779 12.5068 12.8754 12.4697 12.9289 12.4565C12.9791 12.4441 13.0136 12.4468 13.0489 12.4556C13.0933 12.4667 13.1515 12.4914 13.2427 12.5448C13.2839 12.569 13.3235 12.5939 13.3729 12.625C13.3792 12.6289 13.3857 12.633 13.3924 12.6372C13.4459 12.6708 13.515 12.7141 13.5873 12.7538C13.9645 12.961 15.7604 14.0792 16.3297 14.4639C16.4163 14.5283 16.4614 14.6031 16.487 14.6725L16.4563 14.7211C16.3507 14.8887 16.2085 15.1144 16.062 15.3467C15.7911 15.7764 15.5077 16.2258 15.4137 16.374C15.381 16.3983 15.1897 16.5173 14.5467 16.5173C13.8135 16.5173 12.9736 16.4105 10.7394 15.1818C8.95238 14.199 7.2205 12.6391 6.30365 11.713L6.29908 11.7084L6.29442 11.7039C5.35842 10.791 3.76552 8.95853 2.71516 7.05426C1.79149 5.37966 1.4827 4.10329 1.4827 3.32506C1.4827 2.90551 1.53532 2.70676 1.57303 2.61484C1.60213 2.54393 1.63151 2.50771 1.7147 2.4304C1.71458 2.43052 1.71451 2.43057 1.71451 2.43057C1.71452 2.43058 1.71931 2.42624 1.73074 2.41697C1.74283 2.40715 1.75905 2.39448 1.77984 2.37883C1.8217 2.34733 1.87501 2.30907 1.93838 2.26508C2.06505 2.17715 2.21861 2.07547 2.37529 1.97368C2.52159 1.87863 2.68102 1.77696 2.81559 1.69115C2.93775 1.61324 3.03942 1.5484 3.09218 1.51345ZM17.7107 15.5116C17.6051 15.6793 17.4628 15.9051 17.3163 16.1374C17.0241 16.6009 16.7131 17.0939 16.6451 17.2008L16.6388 17.2107L16.6322 17.2205C16.2483 17.7834 15.5124 18 14.5467 18C13.4723 18 12.3808 17.7767 10.0249 16.481C8.05927 15.4 6.21356 13.7289 5.25451 12.7608C4.24836 11.7786 2.55576 9.83518 1.41686 7.77038C0.422422 5.96748 0 4.44038 0 3.32506C0 2.79783 0.0636896 2.38743 0.201294 2.05204C0.347518 1.69564 0.552457 1.4864 0.705313 1.34433C0.882031 1.18009 1.2746 0.920634 1.5675 0.730338C1.75344 0.609538 1.92008 0.503528 2.04778 0.422295C2.15647 0.353152 2.23694 0.301959 2.27708 0.274875C2.48705 0.133177 2.85246 -0.00522572 3.26056 0.000151773C3.71612 0.00615455 4.23627 0.195579 4.60807 0.730421C4.85922 1.09171 5.24587 1.6742 5.63308 2.25756C5.91139 2.67683 6.18999 3.09656 6.41881 3.43493C6.94471 4.14287 7.09766 4.80261 6.91793 5.40605C6.8357 5.68214 6.69751 5.89396 6.58426 6.04271C6.52901 6.11527 6.4746 6.17916 6.43623 6.22422L6.43468 6.22603C6.38957 6.27901 6.37352 6.29839 6.36447 6.31073C6.27619 6.43114 6.19191 6.53821 6.12451 6.62384C6.10535 6.64818 6.08755 6.6708 6.07141 6.69149C5.99214 6.79313 5.94995 6.85214 5.92101 6.90205C5.8882 6.95865 5.85187 7.03045 5.84837 7.25031C5.85197 7.26091 5.85839 7.27809 5.86925 7.30251C5.90205 7.37627 5.95797 7.4774 6.04134 7.60529C6.20776 7.86056 6.44469 8.16364 6.71082 8.47759C7.17361 9.02353 7.67988 9.55053 7.96242 9.84464C8.00393 9.88784 8.0406 9.92602 8.07161 9.9585C8.27328 10.1698 8.85053 10.697 9.45911 11.1865C9.76097 11.4293 10.0558 11.6509 10.3034 11.8136C10.4275 11.8951 10.5295 11.955 10.6075 11.9943C10.6464 12.0139 10.6709 12.0241 10.683 12.0288C10.7044 12.0287 10.7503 12.0246 10.8256 12.0018C10.9233 11.9721 11.0369 11.9209 11.1572 11.8531C11.4031 11.7144 11.6024 11.5489 11.6486 11.5053L11.676 11.4795L11.7058 11.4565C12.2931 11.0056 12.8665 10.8813 13.4095 11.0174C13.6507 11.0779 13.8484 11.1812 13.9925 11.2657C14.0553 11.3025 14.1156 11.3405 14.163 11.3703C14.1694 11.3743 14.1755 11.3782 14.1814 11.3819C14.2364 11.4164 14.2717 11.4381 14.3011 11.4542C14.7344 11.6922 16.5914 12.85 17.1721 13.2436L17.1808 13.2495L17.1893 13.2557C17.6203 13.5661 17.8252 13.9668 17.9187 14.2818C17.965 14.4376 17.9852 14.5753 17.9938 14.6775C17.9982 14.7291 17.9997 14.7729 18 14.8071C18.0001 14.8242 17.9999 14.839 17.9996 14.8513C17.9994 14.8575 17.9992 14.863 17.999 14.8679C17.9989 14.8704 17.9988 14.8727 17.9987 14.8748L17.9986 14.8779L17.9985 14.8793L17.9985 14.88C17.9853 15.1066 17.8271 15.3269 17.7107 15.5116Z" fill="#FFED00"/>
</svg>
