<svg width="31" height="31" viewBox="0 0 31 31" fill="none" xmlns="http://www.w3.org/2000/svg">
<path fill-rule="evenodd" clip-rule="evenodd" d="M31 15.5C31 24.0604 24.0604 31 15.5 31C6.93959 31 0 24.0604 0 15.5C0 6.93959 6.93959 0 15.5 0C24.0604 0 31 6.93959 31 15.5ZM16.3405 21.9098H15.1239C15.1239 21.9098 12.4396 22.0715 10.0759 19.6105C7.49797 16.9262 5.22124 11.5996 5.22124 11.5996C5.22124 11.5996 5.08999 11.2504 5.23257 11.0816C5.39282 10.8917 5.82938 10.8796 5.82938 10.8796L8.73746 10.8605C8.73746 10.8605 9.01155 10.9064 9.20773 11.0503C9.36936 11.1691 9.45999 11.3913 9.45999 11.3913C9.45999 11.3913 9.92998 12.5799 10.5525 13.6553C11.7674 15.7547 12.3333 16.2139 12.7458 15.989C13.3467 15.661 13.1666 13.0212 13.1666 13.0212C13.1666 13.0212 13.1776 12.063 12.864 11.6364C12.6212 11.3056 12.1631 11.2092 11.9608 11.1821C11.7972 11.1603 12.0658 10.7804 12.4139 10.6099C12.9373 10.3535 13.8615 10.3389 14.9534 10.3502C15.8042 10.3588 16.049 10.4118 16.3816 10.4922C17.1534 10.6786 17.1294 11.2757 17.0775 12.5641C17.0619 12.9491 17.0439 13.3958 17.0439 13.9117C17.0439 14.0278 17.0406 14.1515 17.0371 14.2788C17.019 14.9387 16.9984 15.6941 17.4327 15.9749C17.6554 16.1185 18.2003 15.9964 19.563 13.6824C20.209 12.5857 20.6933 11.2962 20.6933 11.2962C20.6933 11.2962 20.7992 11.0664 20.9636 10.9677C21.1318 10.8671 21.3587 10.8981 21.3587 10.8981L24.419 10.879C24.419 10.879 25.3385 10.7693 25.4875 11.1843C25.6436 11.6201 25.1437 12.6374 23.8935 14.3038C22.7061 15.8863 22.1292 16.468 22.1834 16.9832C22.223 17.3588 22.598 17.699 23.3165 18.366C24.8229 19.7642 25.2244 20.4984 25.3199 20.6729C25.3276 20.687 25.3333 20.6975 25.3374 20.7043C26.0116 21.8223 24.5897 21.9098 24.5897 21.9098L21.8718 21.9477C21.8718 21.9477 21.2877 22.0635 20.519 21.5354C20.117 21.2596 19.724 20.809 19.3495 20.3797C18.7771 19.7235 18.2481 19.117 17.7966 19.2601C17.039 19.5005 17.0627 21.1329 17.0627 21.1329C17.0627 21.1329 17.0682 21.4816 16.8956 21.6672C16.708 21.8695 16.3405 21.9098 16.3405 21.9098Z" fill="#5774A0"/>
</svg>
